<svg width="178" height="100" viewBox="0 0 178 100" fill="none" xmlns="http://www.w3.org/2000/svg">
<rect x="4.5" y="0.5" width="169" height="91" rx="3.5" stroke="#AFB1B8"/>
<path d="M60.1462 37.1028H60.1433C57.7453 37.1028 55.8013 38.8304 55.8013 40.9615V40.964C55.8013 43.0951 57.7453 44.8227 60.1433 44.8227H60.1462C62.5442 44.8227 64.4882 43.0951 64.4882 40.964V40.9615C64.4882 38.8304 62.5442 37.1028 60.1462 37.1028Z" fill="#AFB1B8"/>
<path d="M92.195 35.8693C92.1882 32.9093 90.8623 30.0722 88.5074 27.979C86.1525 25.8857 82.9604 24.7067 79.6297 24.7V24.7C76.298 24.7053 73.1045 25.8837 70.7484 27.9772C68.3922 30.0706 67.0655 32.9084 67.0587 35.8693V52.1921C67.0587 52.1921 92.1922 49.7044 92.195 35.8718V35.8693Z" fill="#AFB1B8"/>
<path d="M47 57.5495C47.006 59.6091 47.9291 61.5828 49.5676 63.0394C51.2061 64.496 53.4267 65.317 55.7442 65.3231C58.0612 65.317 60.2814 64.4963 61.9197 63.0403C63.5581 61.5843 64.4816 59.6112 64.4884 57.552V46.1943C64.4884 46.1943 47 47.9266 47 57.5495ZM55.7442 59.5844C55.2913 59.5844 54.8486 59.4651 54.472 59.2415C54.0955 59.0179 53.802 58.7001 53.6287 58.3282C53.4554 57.9564 53.41 57.5472 53.4984 57.1525C53.5867 56.7577 53.8048 56.3951 54.125 56.1105C54.4453 55.8259 54.8533 55.6321 55.2975 55.5536C55.7416 55.4751 56.202 55.5154 56.6205 55.6694C57.0389 55.8234 57.3965 56.0843 57.6481 56.4189C57.8997 56.7535 58.034 57.147 58.034 57.5495C58.0351 57.8173 57.9767 58.0828 57.8622 58.3306C57.7476 58.5783 57.5791 58.8036 57.3664 58.9933C57.1536 59.1831 56.9008 59.3337 56.6224 59.4364C56.3441 59.5392 56.0456 59.5921 55.7442 59.5921V59.5844Z" fill="#AFB1B8"/>
<path d="M73.4177 58.4637H71.7302V60.2069H70.8513V55.9413H73.6286V56.6532H71.7302V57.7548H73.4177V58.4637ZM77.6423 58.1708C77.6423 58.5907 77.5681 58.9589 77.4196 59.2753C77.2712 59.5917 77.0583 59.8358 76.7809 60.0077C76.5056 60.1796 76.1891 60.2655 75.8317 60.2655C75.4782 60.2655 75.1628 60.1805 74.8854 60.0106C74.6081 59.8407 74.3932 59.5985 74.2409 59.2841C74.0886 58.9677 74.0114 58.6044 74.0095 58.1942V57.9833C74.0095 57.5634 74.0847 57.1942 74.235 56.8759C74.3874 56.5555 74.6013 56.3104 74.8766 56.1405C75.154 55.9686 75.4704 55.8827 75.8259 55.8827C76.1813 55.8827 76.4968 55.9686 76.7722 56.1405C77.0495 56.3104 77.2634 56.5555 77.4138 56.8759C77.5661 57.1942 77.6423 57.5624 77.6423 57.9803V58.1708ZM76.7516 57.9774C76.7516 57.5302 76.6716 57.1903 76.5114 56.9579C76.3513 56.7255 76.1227 56.6093 75.8259 56.6093C75.5309 56.6093 75.3034 56.7245 75.1432 56.955C74.9831 57.1835 74.902 57.5194 74.9001 57.9628V58.1708C74.9001 58.6063 74.9802 58.9442 75.1403 59.1844C75.3005 59.4247 75.5309 59.5448 75.8317 59.5448C76.1266 59.5448 76.3532 59.4296 76.5114 59.1991C76.6696 58.9667 76.7497 58.6288 76.7516 58.1854V57.9774ZM80.4929 59.0878C80.4929 58.9218 80.4343 58.7948 80.3171 58.7069C80.1999 58.6171 79.989 58.5233 79.6843 58.4257C79.3796 58.326 79.1384 58.2284 78.9606 58.1327C78.4763 57.871 78.2341 57.5184 78.2341 57.0751C78.2341 56.8446 78.2985 56.6395 78.4274 56.4598C78.5583 56.2782 78.7448 56.1366 78.987 56.035C79.2311 55.9335 79.5046 55.8827 79.8073 55.8827C80.112 55.8827 80.3835 55.9384 80.6218 56.0497C80.86 56.1591 81.0446 56.3143 81.1755 56.5155C81.3083 56.7167 81.3747 56.9452 81.3747 57.201H80.4958C80.4958 57.0057 80.4343 56.8544 80.3112 56.7469C80.1882 56.6376 80.0153 56.5829 79.7927 56.5829C79.5778 56.5829 79.4108 56.6288 79.2917 56.7206C79.1725 56.8104 79.113 56.9296 79.113 57.078C79.113 57.2167 79.1823 57.3329 79.321 57.4266C79.4616 57.5204 79.6677 57.6083 79.9391 57.6903C80.4391 57.8407 80.8034 58.0272 81.0319 58.2499C81.2604 58.4725 81.3747 58.7499 81.3747 59.0819C81.3747 59.451 81.235 59.7411 80.9557 59.952C80.6765 60.161 80.3005 60.2655 79.8278 60.2655C79.4997 60.2655 79.2009 60.2059 78.9313 60.0868C78.6618 59.9657 78.4557 59.8007 78.3132 59.5917C78.1725 59.3827 78.1022 59.1405 78.1022 58.8651H78.9841C78.9841 59.3358 79.2653 59.5712 79.8278 59.5712C80.0368 59.5712 80.1999 59.5292 80.3171 59.4452C80.4343 59.3593 80.4929 59.2401 80.4929 59.0878ZM85.1833 56.6532H83.8766V60.2069H82.9977V56.6532H81.7087V55.9413H85.1833V56.6532ZM88.2536 58.3583H86.5661V59.5009H88.5466V60.2069H85.6872V55.9413H88.5407V56.6532H86.5661V57.6698H88.2536V58.3583ZM90.6413 58.6454H89.9411V60.2069H89.0622V55.9413H90.6472C91.1511 55.9413 91.5397 56.0536 91.8132 56.2782C92.0866 56.5028 92.2233 56.8202 92.2233 57.2303C92.2233 57.5214 92.1599 57.7645 92.0329 57.9598C91.9079 58.1532 91.7175 58.3075 91.4616 58.4227L92.3845 60.1659V60.2069H91.4411L90.6413 58.6454ZM89.9411 57.9335H90.6501C90.8708 57.9335 91.0417 57.8778 91.1628 57.7665C91.2839 57.6532 91.3444 57.4979 91.3444 57.3007C91.3444 57.0995 91.2868 56.9413 91.1716 56.826C91.0583 56.7108 90.8835 56.6532 90.6472 56.6532H89.9411V57.9335ZM95.2673 58.704V60.2069H94.3884V55.9413H96.0524C96.3727 55.9413 96.654 55.9999 96.8962 56.1171C97.1403 56.2343 97.3278 56.4012 97.4587 56.618C97.5895 56.8329 97.655 57.078 97.655 57.3534C97.655 57.7714 97.5114 58.1014 97.2243 58.3436C96.9391 58.5839 96.5436 58.704 96.0378 58.704H95.2673ZM95.2673 57.9921H96.0524C96.2849 57.9921 96.4616 57.9374 96.5827 57.828C96.7057 57.7186 96.7673 57.5624 96.7673 57.3593C96.7673 57.1503 96.7057 56.9813 96.5827 56.8524C96.4597 56.7235 96.2897 56.6571 96.0729 56.6532H95.2673V57.9921ZM100.828 58.3583H99.1403V59.5009H101.121V60.2069H98.2614V55.9413H101.115V56.6532H99.1403V57.6698H100.828V58.3583ZM104.906 56.6532H103.599V60.2069H102.72V56.6532H101.431V55.9413H104.906V56.6532ZM107.976 58.3583H106.289V59.5009H108.269V60.2069H105.41V55.9413H108.263V56.6532H106.289V57.6698H107.976V58.3583ZM110.364 58.6454H109.664V60.2069H108.785V55.9413H110.37C110.874 55.9413 111.262 56.0536 111.536 56.2782C111.809 56.5028 111.946 56.8202 111.946 57.2303C111.946 57.5214 111.883 57.7645 111.756 57.9598C111.631 58.1532 111.44 58.3075 111.184 58.4227L112.107 60.1659V60.2069H111.164L110.364 58.6454ZM109.664 57.9335H110.373C110.593 57.9335 110.764 57.8778 110.885 57.7665C111.007 57.6532 111.067 57.4979 111.067 57.3007C111.067 57.0995 111.009 56.9413 110.894 56.826C110.781 56.7108 110.606 56.6532 110.37 56.6532H109.664V57.9335ZM114.829 59.0878C114.829 58.9218 114.77 58.7948 114.653 58.7069C114.536 58.6171 114.325 58.5233 114.02 58.4257C113.716 58.326 113.474 58.2284 113.297 58.1327C112.812 57.871 112.57 57.5184 112.57 57.0751C112.57 56.8446 112.634 56.6395 112.763 56.4598C112.894 56.2782 113.081 56.1366 113.323 56.035C113.567 55.9335 113.841 55.8827 114.143 55.8827C114.448 55.8827 114.719 55.9384 114.958 56.0497C115.196 56.1591 115.381 56.3143 115.511 56.5155C115.644 56.7167 115.711 56.9452 115.711 57.201H114.832C114.832 57.0057 114.77 56.8544 114.647 56.7469C114.524 56.6376 114.351 56.5829 114.129 56.5829C113.914 56.5829 113.747 56.6288 113.628 56.7206C113.508 56.8104 113.449 56.9296 113.449 57.078C113.449 57.2167 113.518 57.3329 113.657 57.4266C113.798 57.5204 114.004 57.6083 114.275 57.6903C114.775 57.8407 115.139 58.0272 115.368 58.2499C115.596 58.4725 115.711 58.7499 115.711 59.0819C115.711 59.451 115.571 59.7411 115.292 59.952C115.012 60.161 114.636 60.2655 114.164 60.2655C113.836 60.2655 113.537 60.2059 113.267 60.0868C112.998 59.9657 112.792 59.8007 112.649 59.5917C112.508 59.3827 112.438 59.1405 112.438 58.8651H113.32C113.32 59.3358 113.601 59.5712 114.164 59.5712C114.373 59.5712 114.536 59.5292 114.653 59.4452C114.77 59.3593 114.829 59.2401 114.829 59.0878Z" fill="#AFB1B8"/>
</svg>
