<svg width="18" height="16" viewBox="0 0 18 16" fill="none" xmlns="http://www.w3.org/2000/svg">
<g filter="url(#filter0_d_3_14086)">
<path d="M13.996 9.12268L12.1579 8.91281C11.7164 8.86216 11.2822 9.01413 10.9711 9.32531L9.63948 10.6569C7.59147 9.61479 5.91254 7.94308 4.87044 5.88782L6.20925 4.54901C6.52043 4.23782 6.6724 3.80361 6.62174 3.36217L6.41188 1.53849C6.32504 0.807567 5.70991 0.257568 4.97176 0.257568H3.71979C2.90203 0.257568 2.22178 0.93783 2.27243 1.75559C2.65598 7.93584 7.59871 12.8714 13.7717 13.2549C14.5894 13.3056 15.2697 12.6253 15.2697 11.8075V10.5556C15.2769 9.82465 14.7269 9.20952 13.996 9.12268Z" fill="#212121"/>
</g>
<defs>
<filter id="filter0_d_3_14086" x="-1.73022" y="0.257568" width="21" height="21" filterUnits="userSpaceOnUse" color-interpolation-filters="sRGB">
<feFlood flood-opacity="0" result="BackgroundImageFix"/>
<feColorMatrix in="SourceAlpha" type="matrix" values="0 0 0 0 0 0 0 0 0 0 0 0 0 0 0 0 0 0 127 0" result="hardAlpha"/>
<feOffset dy="4"/>
<feGaussianBlur stdDeviation="2"/>
<feComposite in2="hardAlpha" operator="out"/>
<feColorMatrix type="matrix" values="0 0 0 0 0 0 0 0 0 0 0 0 0 0 0 0 0 0 0.25 0"/>
<feBlend mode="normal" in2="BackgroundImageFix" result="effect1_dropShadow_3_14086"/>
<feBlend mode="normal" in="SourceGraphic" in2="effect1_dropShadow_3_14086" result="shape"/>
</filter>
</defs>
</svg>
